<?xml version="1.0" standalone="no"?>
<!DOCTYPE svg PUBLIC "-//W3C//DTD SVG 20010904//EN"
 "http://www.w3.org/TR/2001/REC-SVG-20010904/DTD/svg10.dtd">
<svg version="1.0" xmlns="http://www.w3.org/2000/svg"
 width="1600.000000pt" height="1600.000000pt" viewBox="0 0 1600.000000 1600.000000"
 preserveAspectRatio="xMidYMid meet">
<metadata>
Created by potrace 1.11, written by Peter Selinger 2001-2013
</metadata>
<g transform="translate(0.000000,1600.000000) scale(0.100000,-0.100000)"
fill="#000000" stroke="none">
<path d="M7718 15595 c-2 -2 -61 -6 -133 -9 -71 -4 -148 -9 -170 -10 -22 -2
-76 -7 -120 -10 -44 -4 -116 -11 -160 -16 -121 -16 -146 -19 -200 -25 -27 -3
-61 -8 -75 -10 -14 -3 -41 -7 -60 -10 -29 -5 -185 -33 -335 -60 -16 -3 -48
-11 -70 -17 -22 -5 -50 -12 -62 -14 -229 -42 -895 -244 -1068 -323 -11 -5 -74
-31 -140 -57 -66 -26 -162 -66 -213 -90 -52 -24 -96 -44 -100 -44 -14 0 -423
-211 -557 -288 -398 -227 -876 -560 -1161 -809 -32 -28 -70 -61 -84 -73 -266
-227 -737 -717 -938 -976 -12 -16 -54 -69 -93 -119 -57 -73 -238 -323 -279
-385 -200 -303 -341 -544 -478 -815 -88 -175 -111 -224 -194 -410 -171 -385
-370 -995 -444 -1365 -2 -14 -11 -51 -19 -82 -8 -31 -17 -78 -21 -105 -3 -26
-8 -50 -9 -53 -2 -3 -6 -24 -9 -46 -4 -22 -9 -51 -12 -64 -2 -14 -7 -41 -10
-60 -2 -19 -6 -42 -9 -50 -3 -8 -7 -31 -9 -50 -2 -19 -7 -60 -11 -90 -4 -30
-9 -66 -10 -80 -4 -39 -17 -143 -21 -162 -1 -9 -5 -54 -9 -100 -3 -46 -8 -108
-11 -138 -25 -308 -25 -1009 0 -1160 3 -14 7 -68 10 -120 4 -52 8 -104 10
-115 2 -11 7 -49 11 -85 4 -36 8 -72 10 -80 1 -8 6 -42 9 -75 4 -33 9 -73 12
-90 3 -16 7 -43 10 -60 88 -537 233 -1069 429 -1570 35 -89 73 -184 85 -211
12 -27 45 -98 72 -159 57 -127 230 -472 262 -525 13 -19 26 -42 30 -50 4 -8
12 -24 19 -35 7 -11 27 -47 46 -80 52 -91 230 -373 271 -430 20 -27 58 -81 85
-120 152 -219 382 -507 590 -735 120 -133 473 -477 615 -601 208 -182 439
-363 636 -499 12 -8 50 -35 85 -60 35 -25 72 -49 81 -55 9 -5 62 -39 117 -75
56 -36 110 -69 121 -75 11 -5 20 -13 20 -17 0 -5 4 -8 9 -8 5 0 49 -23 98 -51
139 -81 154 -90 228 -129 116 -62 336 -173 395 -199 53 -24 137 -61 227 -102
23 -10 117 -48 210 -85 500 -195 948 -319 1518 -419 17 -2 41 -7 55 -10 28 -5
74 -12 145 -20 28 -4 61 -8 75 -10 14 -2 51 -7 83 -10 32 -4 66 -8 77 -10 22
-4 169 -16 385 -31 214 -15 910 -8 1025 11 14 2 63 6 110 9 47 4 101 8 120 11
19 3 58 7 85 10 28 3 61 8 75 10 14 2 50 6 80 10 30 3 66 8 80 10 14 3 41 7
60 10 29 5 185 33 335 60 17 3 48 11 70 17 22 5 51 12 65 15 120 21 500 126
695 190 77 26 142 48 145 48 3 1 14 5 25 9 440 168 590 232 890 383 278 140
519 281 825 483 108 71 428 308 501 371 10 8 30 24 44 35 15 10 32 24 39 29 6
6 29 26 52 45 209 181 242 210 387 350 93 90 164 161 253 256 143 152 131 139
259 289 28 32 55 63 60 69 13 14 123 150 150 187 11 15 52 69 91 120 124 165
259 363 387 566 56 88 216 372 264 468 28 55 63 122 77 150 42 79 200 432 235
525 18 47 36 94 41 105 59 124 229 662 285 900 9 39 18 78 21 88 2 9 6 27 9
40 5 24 21 91 35 147 5 19 12 58 16 85 3 28 8 52 9 55 2 3 6 24 9 46 4 22 9
51 12 64 2 14 7 41 10 60 2 19 6 42 9 50 3 8 7 31 9 50 2 19 7 60 11 90 4 30
9 66 10 80 4 39 17 143 21 162 1 9 5 54 9 100 3 46 8 108 11 138 25 315 25
1004 -1 1161 -2 13 -6 67 -9 119 -4 52 -8 104 -10 115 -2 11 -7 49 -11 85 -4
36 -8 72 -10 80 -1 8 -6 42 -9 75 -10 84 -15 115 -56 342 -97 530 -295 1177
-500 1633 -21 47 -52 117 -69 155 -43 95 -217 440 -245 484 -12 20 -26 43 -30
51 -4 8 -12 24 -19 35 -7 11 -27 47 -46 80 -40 70 -272 438 -281 445 -3 3 -32
43 -64 90 -60 86 -195 271 -206 280 -3 3 -30 37 -60 75 -242 312 -662 752
-950 995 -36 30 -72 62 -80 71 -13 13 -59 50 -253 205 -69 55 -198 150 -282
209 -55 38 -102 72 -105 75 -7 9 -295 193 -319 205 -12 5 -21 13 -21 17 0 5
-4 8 -9 8 -5 0 -49 23 -98 51 -128 75 -152 88 -213 122 -105 56 -405 206 -495
245 -49 22 -110 49 -135 60 -90 40 -384 153 -543 207 -191 66 -480 149 -697
200 -85 20 -159 38 -165 39 -10 3 -22 5 -190 36 -153 29 -253 45 -335 55 -25
3 -61 7 -80 10 -19 3 -55 7 -80 10 -25 3 -63 8 -85 10 -67 8 -133 14 -239 21
-55 3 -110 8 -121 11 -21 4 -732 12 -737 8z"/>
</g>
</svg>
